<svg xmlns="http://www.w3.org/2000/svg" viewBox="0 0 800 540"><defs><pattern id="g" width="28" height="28" patternUnits="userSpaceOnUse"><path d="M28 0H0V28" fill="none" stroke="#1c2146" stroke-opacity=".09"/></pattern></defs><rect width="800" height="540" fill="#f8f0df"/><rect width="800" height="540" fill="url(#g)"/><circle cx="610" cy="150" r="92" fill="#b9502e" opacity=".86"/><path d="M110 370h570" stroke="#1c2146" stroke-width="8"/><path d="M145 370V210h45v160m85 0V210h45v160m85 0V210h45v160m85 0V210h45v160" fill="none" stroke="#1c2146" stroke-width="7"/><path d="M115 210l285-92 285 92Z" fill="#f5ecd9" stroke="#1c2146" stroke-width="8"/><path d="M400 60l78 78H322Z" fill="#eab53a" stroke="#1c2146" stroke-width="7"/><g fill="#b9502e"><circle cx="94" cy="410" r="16"/><circle cx="140" cy="395" r="11"/><circle cx="182" cy="414" r="14"/><circle cx="630" cy="402" r="13"/><circle cx="680" cy="416" r="10"/></g><text x="34" y="48" font-family="monospace" font-size="17" fill="#b9502e">POWER / POLICY / PEOPLE</text></svg>